<svg xmlns="http://www.w3.org/2000/svg" width="0" height="0" style="position:absolute">
  
  <defs>
    <g id="ci-search"><circle cx="10.5" cy="10.5" r="6.5" stroke="currentColor" stroke-width="1.25" fill="none"></circle><line x1="15.5" y1="15.5" x2="21" y2="21" stroke="currentColor" stroke-width="1.25" stroke-linecap="square"></line></g>
    <g id="ci-account"><circle cx="12" cy="9" r="4" stroke="currentColor" stroke-width="1.25" fill="none"></circle><path d="M4 21c0-4.5 3.5-8 8-8s8 3.5 8 8" stroke="currentColor" stroke-width="1.25" fill="none" stroke-linecap="square"></path></g>
    <g id="ci-cart"><path d="M4 5h3l2 12h11l2-9H8" stroke="currentColor" stroke-width="1.25" fill="none" stroke-linecap="square" stroke-linejoin="miter"></path><circle cx="10" cy="20.5" r="1.25" fill="currentColor"></circle><circle cx="18" cy="20.5" r="1.25" fill="currentColor"></circle></g>
    <g id="ci-menu"><line x1="3" y1="7" x2="21" y2="7" stroke="currentColor" stroke-width="1.25" stroke-linecap="square"></line><line x1="3" y1="12" x2="21" y2="12" stroke="currentColor" stroke-width="1.25" stroke-linecap="square"></line><line x1="3" y1="17" x2="21" y2="17" stroke="currentColor" stroke-width="1.25" stroke-linecap="square"></line></g>
    <g id="ci-close"><line x1="5" y1="5" x2="19" y2="19" stroke="currentColor" stroke-width="1.25" stroke-linecap="square"></line><line x1="19" y1="5" x2="5" y2="19" stroke="currentColor" stroke-width="1.25" stroke-linecap="square"></line></g>
    <g id="ci-plus"><line x1="12" y1="5" x2="12" y2="19" stroke="currentColor" stroke-width="1.25" stroke-linecap="square"></line><line x1="5" y1="12" x2="19" y2="12" stroke="currentColor" stroke-width="1.25" stroke-linecap="square"></line></g>
    <g id="ci-minus"><line x1="5" y1="12" x2="19" y2="12" stroke="currentColor" stroke-width="1.25" stroke-linecap="square"></line></g>
    <g id="ci-arrow-right"><line x1="4" y1="12" x2="20" y2="12" stroke="currentColor" stroke-width="1.25" stroke-linecap="square"></line><polyline points="14,6 20,12 14,18" stroke="currentColor" stroke-width="1.25" fill="none" stroke-linejoin="miter" stroke-linecap="square"></polyline></g>
    <g id="ci-arrow-left"><line x1="4" y1="12" x2="20" y2="12" stroke="currentColor" stroke-width="1.25" stroke-linecap="square"></line><polyline points="10,6 4,12 10,18" stroke="currentColor" stroke-width="1.25" fill="none" stroke-linejoin="miter" stroke-linecap="square"></polyline></g>
    <g id="ci-check"><polyline points="4,13 10,19 20,6" stroke="currentColor" stroke-width="1.25" fill="none" stroke-linejoin="miter" stroke-linecap="square"></polyline></g>
    <g id="ci-chevron-down"><polyline points="6,9 12,15 18,9" stroke="currentColor" stroke-width="1.25" fill="none" stroke-linejoin="miter" stroke-linecap="square"></polyline></g>
    <g id="ci-heart"><path d="M12 20s-7-4.5-7-10a4 4 0 017-2.5A4 4 0 0119 10c0 5.5-7 10-7 10z" stroke="currentColor" stroke-width="1.25" fill="none" stroke-linejoin="miter"></path></g>
    <g id="ci-external"><polyline points="9,6 18,6 18,15" stroke="currentColor" stroke-width="1.25" fill="none" stroke-linejoin="miter" stroke-linecap="square"></polyline><line x1="18" y1="6" x2="9" y2="15" stroke="currentColor" stroke-width="1.25" stroke-linecap="square"></line><polyline points="14,18 6,18 6,10" stroke="currentColor" stroke-width="1.25" fill="none" stroke-linejoin="miter" stroke-linecap="square"></polyline></g>
  </defs>
</svg>